<svg aria-hidden="true" style="position: absolute; width: 0; height: 0; overflow: hidden;" version="1.1" xmlns="http://www.w3.org/2000/svg" xmlns:xlink="http://www.w3.org/1999/xlink">
<defs>
<symbol id="icon-alcove" viewBox="0 0 40 32">
<path d="M3 0c-1.656 0-3 1.344-3 3v20c0 1.656 1.344 3 3 3h1c0 3.313 2.688 6 6 6s6-2.688 6-6h8c0 3.313 2.688 6 6 6s6-2.688 6-6h2c1.106 0 2-0.894 2-2s-0.894-2-2-2v-7.169c0-1.063-0.419-2.081-1.169-2.831l-4.831-4.831c-0.75-0.75-1.769-1.169-2.831-1.169h-3.169v-3c0-1.656-1.344-3-3-3h-20zM26 10h3.169l4.831 4.831v1.169h-8v-6zM7 26c0-1.657 1.343-3 3-3s3 1.343 3 3v0c0 1.657-1.343 3-3 3s-3-1.343-3-3v0zM30 23c1.657 0 3 1.343 3 3s-1.343 3-3 3v0c-1.657 0-3-1.343-3-3s1.343-3 3-3v0z"></path>
</symbol>
<symbol id="icon-fullyintegrated" viewBox="0 0 40 32">
<path d="M4 6.5v5.5h6v-6h-5.5c-0.275 0-0.5 0.225-0.5 0.5zM34.125 12l-5.056-6h-5.069v6h10.125zM20 12v-6h-6v6h6zM37 24h-1c0 3.313-2.688 6-6 6s-6-2.688-6-6h-8c0 3.313-2.688 6-6 6s-6-2.688-6-6h-1c-1.656 0-3-1.344-3-3v-14.5c0-2.487 2.013-4.5 4.5-4.5h24.569c1.181 0 2.3 0.519 3.063 1.425l6.931 8.231c0.606 0.719 0.938 1.631 0.938 2.575v6.769c0 1.656-1.344 3-3 3zM33 24c0-1.657-1.343-3-3-3s-3 1.343-3 3v0c0 1.657 1.343 3 3 3s3-1.343 3-3v0zM10 27c1.657 0 3-1.343 3-3s-1.343-3-3-3v0c-1.657 0-3 1.343-3 3s1.343 3 3 3v0z"></path>
</symbol>
<symbol id="icon-van" viewBox="0 0 40 32">
<path d="M23.038 6l4.8 6h-9.838v-6h5.038zM14 5v7h-10c-1.106 0-2 0.894-2 2v4c-1.106 0-2 0.894-2 2s0.894 2 2 2h2.069c-0.044 0.325-0.069 0.663-0.069 1 0 3.869 3.131 7 7 7s7-3.131 7-7c0-0.337-0.025-0.675-0.069-1h4.144c-0.044 0.325-0.069 0.663-0.069 1 0 3.869 3.131 7 7 7s7-3.131 7-7c0-0.337-0.025-0.675-0.069-1h2.069c1.106 0 2-0.894 2-2s-0.894-2-2-2v-4c0-1.106-0.894-2-2-2h-3.038l-6.806-8.5c-0.756-0.95-1.906-1.5-3.125-1.5h-6.038c-1.656 0-3 1.344-3 3zM14 23c0 1.657-1.343 3-3 3s-3-1.343-3-3v0c0-1.657 1.343-3 3-3s3 1.343 3 3v0zM32 23c0 1.657-1.343 3-3 3s-3-1.343-3-3v0c0-1.657 1.343-3 3-3s3 1.343 3 3v0z"></path>
</symbol>
<symbol id="icon-water" viewBox="0 0 24 32">
<path d="M12 32c-6.625 0-12-5.375-12-12 0-5.7 8.137-16.394 10.412-19.269 0.375-0.469 0.931-0.731 1.531-0.731h0.113c0.6 0 1.156 0.263 1.531 0.731 2.275 2.875 10.412 13.569 10.412 19.269 0 6.625-5.375 12-12 12zM6 21c0-0.55-0.45-1-1-1s-1 0.45-1 1c0 3.869 3.131 7 7 7 0.55 0 1-0.45 1-1s-0.45-1-1-1c-2.762 0-5-2.238-5-5z"></path>
</symbol>
<symbol id="icon-gas" viewBox="0 0 28 32">
<path d="M9.956 0.338c0.488-0.456 1.244-0.45 1.731 0.006 1.725 1.619 3.344 3.362 4.856 5.25 0.688-0.9 1.469-1.881 2.313-2.681 0.494-0.462 1.256-0.462 1.75 0.006 2.163 2.063 3.994 4.787 5.281 7.375 1.269 2.55 2.113 5.156 2.113 6.994 0 7.975-6.238 14.712-14 14.712-7.85 0-14-6.744-14-14.719 0-2.4 1.113-5.331 2.837-8.231 1.744-2.944 4.206-6.013 7.119-8.713zM14.106 26c1.581 0 2.981-0.438 4.3-1.313 2.631-1.837 3.337-5.512 1.756-8.4-0.281-0.563-1-0.6-1.406-0.125l-1.575 1.831c-0.413 0.475-1.156 0.462-1.544-0.031-1.031-1.313-2.875-3.656-3.925-4.988-0.394-0.5-1.144-0.506-1.544-0.006-2.113 2.656-3.175 4.331-3.175 6.213 0.006 4.281 3.169 6.819 7.112 6.819z"></path>
</symbol>
<symbol id="icon-microwave" viewBox="0 0 36 32">
<path d="M4 5c-0.55 0-1 0.45-1 1v20c0 0.55 0.45 1 1 1h28c0.55 0 1-0.45 1-1v-20c0-0.55-0.45-1-1-1h-28zM0 6c0-2.206 1.794-4 4-4h28c2.206 0 4 1.794 4 4v20c0 2.206-1.794 4-4 4h-28c-2.206 0-4-1.794-4-4v-20zM6 10c0-1.105 0.895-2 2-2s2 0.895 2 2v0c0 1.105-0.895 2-2 2s-2-0.895-2-2v0zM12.5 10c0-0.831 0.669-1.5 1.5-1.5h14c0.831 0 1.5 0.669 1.5 1.5s-0.669 1.5-1.5 1.5h-14c-0.831 0-1.5-0.669-1.5-1.5zM12.5 16c0-0.831 0.669-1.5 1.5-1.5h14c0.831 0 1.5 0.669 1.5 1.5s-0.669 1.5-1.5 1.5h-14c-0.831 0-1.5-0.669-1.5-1.5zM12.5 22c0-0.831 0.669-1.5 1.5-1.5h14c0.831 0 1.5 0.669 1.5 1.5s-0.669 1.5-1.5 1.5h-14c-0.831 0-1.5-0.669-1.5-1.5zM8 18c-1.105 0-2-0.895-2-2s0.895-2 2-2v0c1.105 0 2 0.895 2 2s-0.895 2-2 2v0zM6 22c0-1.105 0.895-2 2-2s2 0.895 2 2v0c0 1.105-0.895 2-2 2s-2-0.895-2-2v0z"></path>
</symbol>
<symbol id="icon-refrigerator" viewBox="0 0 28 32">
<path d="M14 0c1.106 0 2 0.894 2 2v1.881l0.938-0.938c0.587-0.587 1.538-0.587 2.119 0s0.587 1.538 0 2.119l-3.063 3.063v4.394l3.837-2.238 1.106-4.131c0.212-0.8 1.038-1.275 1.837-1.063s1.275 1.037 1.063 1.838l-0.325 1.206 1.475-0.862c0.956-0.556 2.181-0.231 2.738 0.719s0.238 2.181-0.719 2.737l-1.581 0.925 1.356 0.363c0.8 0.213 1.275 1.037 1.063 1.838s-1.038 1.275-1.837 1.063l-4.231-1.131-3.806 2.219 3.806 2.219 4.231-1.131c0.8-0.212 1.625 0.262 1.837 1.063s-0.262 1.625-1.063 1.837l-1.356 0.363 1.581 0.925c0.956 0.556 1.275 1.781 0.719 2.738s-1.781 1.275-2.738 0.719l-1.475-0.863 0.325 1.206c0.212 0.8-0.262 1.625-1.063 1.837s-1.625-0.262-1.837-1.063l-1.106-4.131-3.831-2.238v4.394l3.063 3.063c0.587 0.587 0.587 1.538 0 2.119s-1.538 0.587-2.119 0l-0.938-0.938v1.881c0 1.106-0.894 2-2 2s-2-0.894-2-2v-1.881l-0.938 0.938c-0.588 0.587-1.537 0.587-2.119 0s-0.588-1.538 0-2.119l3.063-3.063v-4.394l-3.838 2.238-1.106 4.131c-0.213 0.8-1.038 1.275-1.837 1.063s-1.275-1.038-1.063-1.837l0.325-1.206-1.487 0.856c-0.956 0.556-2.181 0.231-2.737-0.719s-0.231-2.181 0.719-2.738l1.581-0.925-1.356-0.363c-0.8-0.212-1.275-1.038-1.063-1.837s1.038-1.275 1.837-1.063l4.231 1.131 3.813-2.212-3.806-2.219-4.231 1.131c-0.8 0.213-1.625-0.262-1.837-1.063s0.263-1.625 1.063-1.838l1.356-0.363-1.581-0.925c-0.956-0.556-1.275-1.781-0.719-2.731s1.781-1.275 2.737-0.719l1.475 0.862-0.325-1.206c-0.212-0.8 0.263-1.625 1.063-1.837s1.625 0.263 1.837 1.063l1.106 4.131 3.831 2.231v-4.394l-3.063-3.063c-0.588-0.588-0.588-1.538 0-2.119s1.537-0.587 2.119 0l0.938 0.938 0.006-1.881c0-1.106 0.894-2 2-2z"></path>
</symbol>
<symbol id="icon-radio" viewBox="0 0 32 32">
<path d="M30.925 2.938c0.794-0.231 1.25-1.069 1.019-1.863s-1.069-1.25-1.869-1.012l-26.844 7.869c-0.587 0.169-1.119 0.456-1.569 0.825-1.006 0.725-1.663 1.906-1.663 3.244v16c0 2.206 1.794 4 4 4h24c2.206 0 4-1.794 4-4v-16c0-2.206-1.794-4-4-4h-14.344l17.269-5.063zM23 15c2.761 0 5 2.239 5 5s-2.239 5-5 5v0c-2.761 0-5-2.239-5-5s2.239-5 5-5v0zM5 16c0-0.55 0.45-1 1-1h6c0.55 0 1 0.45 1 1s-0.45 1-1 1h-6c-0.55 0-1-0.45-1-1zM4 20c0-0.55 0.45-1 1-1h8c0.55 0 1 0.45 1 1s-0.45 1-1 1h-8c-0.55 0-1-0.45-1-1zM5 24c0-0.55 0.45-1 1-1h6c0.55 0 1 0.45 1 1s-0.45 1-1 1h-6c-0.55 0-1-0.45-1-1z"></path>
</symbol>
<symbol id="icon-tv" viewBox="0 0 36 32">
<path d="M4 0c-2.206 0-4 1.794-4 4v18c0 2.206 1.794 4 4 4h11l-0.669 2h-4.331c-1.106 0-2 0.894-2 2s0.894 2 2 2h16c1.106 0 2-0.894 2-2s-0.894-2-2-2h-4.331l-0.669-2h11c2.206 0 4-1.794 4-4v-18c0-2.206-1.794-4-4-4h-28zM32 4v14h-28v-14h28z"></path>
</symbol>
<symbol id="icon-transmission" viewBox="0 0 40 32">
<path d="M16 4h8v4h-8v-4zM15 0c-1.656 0-3 1.344-3 3v6c0 1.656 1.344 3 3 3h3v2h-16c-1.106 0-2 0.894-2 2s0.894 2 2 2h6v2h-3c-1.656 0-3 1.344-3 3v6c0 1.656 1.344 3 3 3h10c1.656 0 3-1.344 3-3v-6c0-1.656-1.344-3-3-3h-3v-2h16v2h-3c-1.656 0-3 1.344-3 3v6c0 1.656 1.344 3 3 3h10c1.656 0 3-1.344 3-3v-6c0-1.656-1.344-3-3-3h-3v-2h6c1.106 0 2-0.894 2-2s-0.894-2-2-2h-16v-2h3c1.656 0 3-1.344 3-3v-6c0-1.656-1.344-3-3-3h-10zM6 28v-4h8v4h-8zM26 24h8v4h-8v-4z"></path>
</symbol>
<symbol id="icon-kitchen" viewBox="0 0 36 32">
<path d="M15 9c0-3.314-2.686-6-6-6s-6 2.686-6 6v0c0 3.314 2.686 6 6 6s6-2.686 6-6v0zM17.775 11c-0.906 4.006-4.494 7-8.775 7-4.969 0-9-4.031-9-9s4.031-9 9-9c4.281 0 7.869 2.994 8.775 7h4.488c0.55-0.612 1.35-1 2.238-1h6.5c1.656 0 3 1.344 3 3s-1.344 3-3 3h-6.5c-0.887 0-1.688-0.387-2.238-1h-4.488zM9 5c2.209 0 4 1.791 4 4s-1.791 4-4 4v0c-2.209 0-4-1.791-4-4s1.791-4 4-4v0zM25 15c0.831 0 1.5 0.669 1.5 1.5v0.5h6c0.831 0 1.5 0.669 1.5 1.5s-0.669 1.5-1.5 1.5h-15c-0.831 0-1.5-0.669-1.5-1.5s0.669-1.5 1.5-1.5h6v-0.5c0-0.831 0.669-1.5 1.5-1.5zM18 29v-7h14v7c0 1.656-1.344 3-3 3h-8c-1.656 0-3-1.344-3-3zM3 20h8c1.656 0 3 1.344 3 3s-1.344 3-3 3h-1c0 1.106-0.894 2-2 2h-4c-1.106 0-2-0.894-2-2v-5c0-0.55 0.45-1 1-1zM11 24c0.55 0 1-0.45 1-1s-0.45-1-1-1h-1v2h1zM1.5 29h11c0.831 0 1.5 0.669 1.5 1.5s-0.669 1.5-1.5 1.5h-11c-0.831 0-1.5-0.669-1.5-1.5s0.669-1.5 1.5-1.5z"></path>
</symbol>
<symbol id="icon-bathroom" viewBox="0 0 32 32">
<path d="M4 8.244c0-1.237 1.006-2.244 2.244-2.244 0.594 0 1.162 0.237 1.588 0.656l1.012 1.013c-1.313 2.431-1.088 5.469 0.681 7.687l-0.088 0.081c-0.588 0.587-0.588 1.538 0 2.119s1.537 0.587 2.119 0l10.006-9.994c0.587-0.588 0.587-1.537 0-2.119s-1.538-0.588-2.119 0l-0.081 0.081c-2.219-1.769-5.262-1.994-7.688-0.681l-1.019-1.013c-1.169-1.175-2.756-1.831-4.412-1.831-3.45 0-6.244 2.794-6.244 6.244v19.756c0 1.106 0.894 2 2 2s2-0.894 2-2v-19.756zM16 22c1.105 0 2-0.895 2-2s-0.895-2-2-2v0c-1.105 0-2 0.895-2 2s0.895 2 2 2v0zM20 26c0-1.105-0.895-2-2-2s-2 0.895-2 2v0c0 1.105 0.895 2 2 2s2-0.895 2-2v0zM20 18c1.105 0 2-0.895 2-2s-0.895-2-2-2v0c-1.105 0-2 0.895-2 2s0.895 2 2 2v0zM24 22c0-1.105-0.895-2-2-2s-2 0.895-2 2v0c0 1.105 0.895 2 2 2s2-0.895 2-2v0zM24 14c1.105 0 2-0.895 2-2s-0.895-2-2-2v0c-1.105 0-2 0.895-2 2s0.895 2 2 2v0zM28 18c0-1.105-0.895-2-2-2s-2 0.895-2 2v0c0 1.105 0.895 2 2 2s2-0.895 2-2v0zM30 16c1.105 0 2-0.895 2-2s-0.895-2-2-2v0c-1.105 0-2 0.895-2 2s0.895 2 2 2v0z"></path>
</symbol>
<symbol id="icon-ac" viewBox="0 0 32 32">
<path d="M18 2c0 1.106 0.894 2 2 2h2c1.106 0 2 0.894 2 2s-0.894 2-2 2h-20c-1.106 0-2 0.894-2 2s0.894 2 2 2h20c3.313 0 6-2.688 6-6s-2.688-6-6-6h-2c-1.106 0-2 0.894-2 2zM22 24c0 1.106 0.894 2 2 2h2c3.313 0 6-2.688 6-6s-2.688-6-6-6h-24c-1.106 0-2 0.894-2 2s0.894 2 2 2h24c1.106 0 2 0.894 2 2s-0.894 2-2 2h-2c-1.106 0-2 0.894-2 2zM8 32h2c3.313 0 6-2.688 6-6s-2.688-6-6-6h-8c-1.106 0-2 0.894-2 2s0.894 2 2 2h8c1.106 0 2 0.894 2 2s-0.894 2-2 2h-2c-1.106 0-2 0.894-2 2s0.894 2 2 2z"></path>
</symbol>
<symbol id="icon-location" viewBox="0 0 32 32">
<path d="M17.481 31.241c3.206-4.012 10.519-13.738 10.519-19.2 0-6.625-5.375-12-12-12s-12 5.375-12 12c0 5.463 7.313 15.188 10.519 19.2 0.769 0.956 2.194 0.956 2.962 0zM16 8.041c2.209 0 4 1.791 4 4s-1.791 4-4 4v0c-2.209 0-4-1.791-4-4s1.791-4 4-4v0z"></path>
</symbol>
<symbol id="icon-logo" viewBox="0 0 640 512">
<path d="M0 112C0 67.8 35.8 32 80 32l336 0c88.4 0 160 71.6 160 160l0 160 32 0c17.7 0 32 14.3 32 32s-14.3 32-32 32l-32 0-288 0c0 53-43 96-96 96s-96-43-96-96l-16 0c-44.2 0-80-35.8-80-80L0 112zM320 352l128 0 0-96-32 0c-8.8 0-16-7.2-16-16s7.2-16 16-16l32 0 0-64c0-17.7-14.3-32-32-32l-64 0c-17.7 0-32 14.3-32 32l0 192zM96 128c-17.7 0-32 14.3-32 32l0 64c0 17.7 14.3 32 32 32l128 0c17.7 0 32-14.3 32-32l0-64c0-17.7-14.3-32-32-32L96 128zm96 336a48 48 0 1 0 0-96 48 48 0 1 0 0 96z"/>
</symbol>
<symbol id="icon-fav" viewBox="0 0 32 32">
<path d="M14.112 28.921l-0.156-0.144-10.95-10.169c-1.919-1.781-3.006-4.281-3.006-6.9v-0.206c0-4.4 3.125-8.175 7.45-9 2.463-0.475 4.981 0.094 6.988 1.506 0.563 0.4 1.088 0.862 1.563 1.394 0.262-0.3 0.544-0.575 0.844-0.831 0.231-0.2 0.469-0.388 0.719-0.563 0 0 0 0 0 0 2.006-1.413 4.525-1.981 6.988-1.513 4.325 0.825 7.45 4.606 7.45 9.006v0.206c0 2.619-1.087 5.119-3.006 6.9l-11.106 10.313c-0.512 0.475-1.188 0.744-1.887 0.744s-1.375-0.262-1.887-0.744zM14.943 8.721c-0.025-0.019-0.044-0.044-0.063-0.069l-1.119-1.256s0 0 0 0c-1.444-1.619-3.625-2.356-5.75-1.95-2.912 0.556-5.013 3.094-5.013 6.056v0.206c0 1.781 0.744 3.488 2.050 4.7l10.95 10.169 10.95-10.169c1.306-1.213 2.050-2.919 2.050-4.7v-0.206c0-2.956-2.1-5.5-5.006-6.056-2.125-0.406-4.313 0.338-5.75 1.95 0 0 0 0-0.006 0.006s0 0-0.006 0.006l-1.113 1.25c-0.019 0.025-0.044 0.044-0.063 0.069-0.281 0.281-0.663 0.438-1.056 0.438s-0.775-0.156-1.056-0.438z"></path>
</symbol>
<symbol id="icon-rating" viewBox="0 0 32 32">
<path  d="M15.116 1.676c0.375-0.711 1.394-0.711 1.769 0l3.777 7.158c0.145 0.274 0.408 0.466 0.714 0.519l7.975 1.38c0.792 0.137 1.107 1.106 0.547 1.682l-5.641 5.804c-0.216 0.222-0.317 0.532-0.273 0.839l1.152 8.010c0.114 0.796-0.71 1.395-1.431 1.040l-7.263-3.571c-0.278-0.137-0.604-0.137-0.882 0l-7.262 3.571c-0.722 0.355-1.546-0.244-1.431-1.040l1.152-8.010c0.044-0.307-0.057-0.617-0.273-0.839l-5.64-5.804c-0.56-0.577-0.246-1.545 0.547-1.682l7.974-1.38c0.306-0.053 0.569-0.244 0.714-0.519l3.776-7.158z"></path>
</symbol>
<symbol id="icon-petrol" viewBox="0 0 32 32">
<path d="M6 5c0-0.265 0.105-0.52 0.293-0.707s0.442-0.293 0.707-0.293h10c0.265 0 0.52 0.105 0.707 0.293s0.293 0.442 0.293 0.707v10c0 0.265-0.105 0.52-0.293 0.707s-0.442 0.293-0.707 0.293h-10c-0.265 0-0.52-0.105-0.707-0.293s-0.293-0.442-0.293-0.707v-10z"></path>
<path d="M2 4c0-1.061 0.421-2.078 1.172-2.828s1.768-1.172 2.828-1.172h12c1.061 0 2.078 0.421 2.828 1.172s1.172 1.768 1.172 2.828v16c1.061 0 2.078 0.421 2.828 1.172s1.172 1.768 1.172 2.828v1c0 0.265 0.105 0.52 0.293 0.707s0.442 0.293 0.707 0.293 0.52-0.105 0.707-0.293c0.188-0.188 0.293-0.442 0.293-0.707v-9h-1c-0.265 0-0.52-0.105-0.707-0.293s-0.293-0.442-0.293-0.707v-6.25c0-0.265 0.105-0.52 0.293-0.707s0.442-0.293 0.707-0.293h2.99c-0.022-0.952-0.106-1.788-0.402-2.444-0.158-0.381-0.435-0.702-0.788-0.916-0.368-0.22-0.928-0.39-1.8-0.39-0.265 0-0.52-0.105-0.707-0.293s-0.293-0.442-0.293-0.707 0.105-0.52 0.293-0.707c0.188-0.188 0.442-0.293 0.707-0.293 1.128-0.003 2.069 0.221 2.824 0.672 0.766 0.456 1.268 1.102 1.588 1.814 0.59 1.31 0.588 2.93 0.588 4.162v6.35c0 0.132-0.025 0.262-0.076 0.383s-0.124 0.232-0.217 0.325c-0.093 0.093-0.203 0.167-0.325 0.217s-0.252 0.076-0.383 0.076h-1v9c0 0.796-0.316 1.559-0.879 2.121s-1.326 0.879-2.121 0.879-1.559-0.316-2.121-0.879c-0.563-0.563-0.879-1.326-0.879-2.121v-1c0-0.53-0.211-1.039-0.586-1.414s-0.884-0.586-1.414-0.586v8h1c0.265 0 0.52 0.105 0.707 0.293s0.293 0.442 0.293 0.707-0.105 0.52-0.293 0.707c-0.188 0.188-0.442 0.293-0.707 0.293h-22c-0.265 0-0.52-0.105-0.707-0.293s-0.293-0.442-0.293-0.707 0.105-0.52 0.293-0.707c0.188-0.188 0.442-0.293 0.707-0.293h1v-26zM20 4c0-0.53-0.211-1.039-0.586-1.414s-0.884-0.586-1.414-0.586h-12c-0.53 0-1.039 0.211-1.414 0.586s-0.586 0.884-0.586 1.414v26h16v-26z"></path>
</symbol>
</defs>
</svg>